# xmcd CD database file
#
# Track frame offsets:
#	150
#	11970
#	25230
#	34405
#	48752
#	62746
#	76114
#	88706
#	101076
#	119373
#	133166
#	142335
#
# Disc length: 2079 seconds
#
# Revision: 0
# Processed by: cddbd v1.5.2PL0 Copyright (c) Steve Scherf et al.
# Submitted via: CDex 1.70beta2
#
DISCID=a8081d0c
DTITLE=Charlie Parker -  The Jazz Legends Series - Charlie Parker
DYEAR=2008
DGENRE=Jazz
TTITLE0=Scrapple from the Apple
TTITLE1=A Night in Tunisia Part One
TTITLE2=A Night in Tunisia Part Two
TTITLE3=My Old Flame
TTITLE4=Confirmation
TTITLE5=Quasimodo
TTITLE6=Don't Blame Me
TTITLE7=Dizzy Atmosphere
TTITLE8=Out of Nowhere
TTITLE9=Groovin' High Part One
TTITLE10=Groovin' High Part Two
TTITLE11=Dewey Square
EXTD=YEAR: 2008
EXTT0=
EXTT1=
EXTT2=
EXTT3=
EXTT4=
EXTT5=
EXTT6=
EXTT7=
EXTT8=
EXTT9=
EXTT10=
EXTT11=
PLAYORDER=
